<?xml version="1.0" encoding="UTF-8"?><svg id="Layer_2" xmlns="http://www.w3.org/2000/svg" viewBox="0 0 477.34 443.85"><defs><style>.cls-1{fill:#594032;}.cls-1,.cls-2,.cls-3,.cls-4,.cls-5,.cls-6,.cls-7,.cls-8,.cls-9{stroke-width:0px;}.cls-2{fill:#3b2a20;}.cls-3{fill:#fbf6cb;}.cls-4{fill:#fcd93f;}.cls-5{fill:#fded85;}.cls-6{fill:#fdcf02;}.cls-7{fill:#f0e8e0;}.cls-8{fill:#fefefe;}.cls-9{fill:#efae29;}</style></defs><g id="Layer_1-2"><path class="cls-2" d="M221.82,409.86c-15.48-1.72-30.81-4.18-45.65-9.11-4.37-1.46-8.86-4.71-12.96-4.24-4.11.47-7.67,4.83-11.73,7.01-6.24,3.35-12.6,6.51-19.09,9.34-5.3,2.31-10.34,1.19-14.89-2.45-8.81-7.06-13.72-16.52-16.47-27.18-2.03-7.85-2.32-15.84,1.03-23.45,1.18-2.68.53-4.04-1.43-5.91-18.37-17.4-33.39-37.36-45.03-59.84-5.33-10.3-10.12-20.83-12.9-32.19-1.89-7.72-1.31-15.02,2.16-22.27,6.72-14.03,15.4-26.73,25.35-38.61,3.02-3.61,3.06-3.5-1.27-5.79-28.18-14.86-49.15-36.42-61.12-66.25C1.88,114.07-.87,98.57.24,82.61c.48-6.89,2.05-13.76,3.69-20.5,2.47-10.14,5.91-14.22,19.57-15.31,16.12-1.29,31.83,1.37,47.01,6.43,10.31,3.43,20.2,8.14,30.22,12.39,3.09,1.31,2.99,1.48,3.26-1.9,1.65-20.73,8.45-39.36,21.8-55.56,6.3-7.65,13.67-9.7,22.99-7.02,12.46,3.59,23.46,9.87,33.58,17.76,22.51,17.56,38.01,40.03,46.44,67.34,1.28,4.15,1.27,4.29,5.41,3.53,18.44-3.35,37.06-3.59,55.68-2.82,13.27.55,26.45,2.26,39.42,5.28.38-.3.77-.61,1.15-.91-3.84-9.51-9.84-17.62-16.35-25.43-1.95-2.33-3.15-1.95-5.02.04-5.09,5.4-11.09,9.31-18.46,11.09-15.01,3.64-28.28-3.87-31.47-18.03-3.11-13.79,6.26-28.48,20.43-31.1,19.43-3.59,35.25,3.21,47.59,18.26,10.24,12.48,15.53,27.28,18.4,42.92,1.07,5.82,2.78,9.73,9.12,11.62,6.92,2.07,6.47,2.71,7.02-4.82,1.57-21.41,7.18-41.54,20.66-58.7,9.83-12.52,22.53-20.56,38.78-21.68,8.74-.61,16.97,1.07,22.74,8.55,6.61,8.58,4.73,18.93-4.47,24.92-6.62,4.31-14.04,5.78-21.83,5.49-2.65-.1-5.51-.08-7.86-1.08-4.53-1.94-7.27-.16-10.19,3.07-13.19,14.63-21.75,31.55-25.64,50.85-.36,1.77-.09,2.98,1.67,4.14,13.78,9.09,25.07,20.7,34.23,34.43.64.95,1.42,1.88,2.32,2.57,23.24,17.85,39.15,41.29,51.3,67.56,6.29,13.6,10.91,27.8,12.9,42.66,3.72,27.73-2.8,53.06-18.98,75.85-10.06,14.18-22.89,25.33-38.1,33.65-3.15,1.72-4.78,3.8-5.76,7.34-1.17,4.21-3.2,8.36-5.65,12-4.09,6.06-10.28,8.35-17.41,6.87-6.14-1.27-12.12-3.25-18.22-4.75-1.47-.36-3.22-.43-4.66,0-10.3,3.01-20.54,6.19-30.81,9.29-2.1.64-3.56,1.13-1.81,3.89,2.46,3.88,2.97,8.39,2.64,12.96-2.63,3.14-4.77,6.95-7.97,9.3-17.04,12.51-35.94,20.31-57.44,18.55-21.42-1.76-37.99-11.9-48.28-31.32-.49-.92-1.36-1.62-2.06-2.43ZM150.83,347.86c1.31.7,2.62,1.4,3.93,2.1l-.04-.03c.28.55.42,1.39.86,1.6,7.76,3.76,12.82,10.2,16.9,17.42,1.66,2.95,3.8,4.25,6.55,4.69-6.62-8.67-13.29-17.39-19.95-26.11-1.95-3.78-4.03-7.5-5.82-11.35-8.06-17.35-12.37-35.7-14.27-54.66-1.31-13.11-1.6-26.28.11-39.34,1.16-8.84,3.34-17.55,5.06-26.31.25,1.92.66,3.83.71,5.75.23,8.92.99,17.77,3.04,26.48,2.53,10.71,7.31,20.05,15.42,27.77,6.48,6.17,14.21,9.49,22.52,11.99,3.77,1.14,3.9,1.12,2.92-2.79-2.74-10.94-4.22-22.02-3.86-33.31.08-2.62.54-5.24.96-7.83,1.01-6.16,1.76-12.39,3.23-18.44,2.34-9.67,6-18.89,10.69-27.69.4-.75.3-1.76.43-2.65-.76.19-1.54.31-2.27.58-6.96,2.6-13.75,5.82-20.89,7.71-9.98,2.65-20.23,4.32-30.36,6.41-3.88.15-7.77.31-11.65.46-3.41-.02-6.83-.04-10.24-.06-3.78-.43-7.55-1.01-11.34-1.19-.94-.05-2.24.98-2.85,1.88-.82,1.2-1.15,2.73-1.64,4.14-5.05,14.49-8.07,29.46-8.68,44.73-.41,10.23-.32,20.71,1.38,30.76,3.24,19.15,12.56,35.88,23.71,51.57.73,1.02,2.35,1.83,3.64,1.95,4.28.42,8.59.49,12.89.69l.29.17.33-.03c.8.26,1.6.52,2.39.78.21.18.44.24.71.19,1.73.65,3.46,1.3,5.2,1.95v-.02ZM276.04,43.04l.05.11c-2.58-.82-3.69,1.29-4.72,2.78-2.65,3.82-2.08,12.57.79,16.57,2.76,3.84,10.33,6.4,15.29,4.9,4.61-1.4,8.97-3.33,12.34-7.05,2.45-2.71,5.21-5.13,7.68-7.82,1.97-2.15,3.87-3.67,6.8-1.56.51.36,1.44.13,2.18.17-.32-.71-.45-1.72-1.01-2.08-4.25-2.81-8.45-5.75-12.95-8.11-2.21-1.16-5.01-1.19-7.54-1.73-6.45-1.97-12.48-1.01-18.14,2.59-.26.42-.51.83-.77,1.25ZM110.98,359.72c-.36.53-.72,1.07-1.08,1.6-.91.72-2.17,1.25-2.67,2.18-2.57,4.76.89,13.6,5.92,15.91,6.25,2.86,12,.72,17.68-1.62,10.85-4.47,21.6-9.22,33.7-9.02,3.31.05,1.48-2.07.82-2.8-4.24-4.66-8.33-9.63-14.59-11.7-1.76-.58-3.78-.36-5.67-.51-.47-.41-.89-1.05-1.43-1.2-10.52-2.92-20.49-1.62-29.78,4.16-1.18.73-2,2.05-2.99,3.1l.1-.09ZM322.68,397.73l.11.09c-2.39-5.43-7.06-8.6-11.7-11.76-5.85-3.99-12.59-5.68-19.33-7.35-.86-.18-1.71-.36-2.57-.54-2.47-.12-4.95-.24-7.42-.35,1.42-.53,2.85-1.06,3.87-1.44-5.14-3.81-11.39-2.5-17.41-2.52-3.11-.01-6.22.62-9.33.93-8.85.88-16.98,4.01-24.84,7.95-2.79,1.4-2.89,2.07-.37,4.33,3.19,2.87,6.58,5.53,10.05,8.06,10.44,7.64,22.31,12.35,34.69,15.52,11.57,2.97,23.49,3.78,35.44,3.08,4.25-.25,8.44-1.39,12.68-1.71,3.11-.23,3.77-2.01,3.08-4.29-.95-3.13-2.37-6.14-3.83-9.08-.24-.48-1.74-.34-2.66-.48-.26-.04-.41-.18-.47-.43ZM79.76,230.55c2.15-6.1,4.3-12.2,6.45-18.3-.39-.24-.78-.48-1.18-.72-1.88,2.14-3.86,4.21-5.63,6.44-8.01,10.11-15.62,20.48-20.24,32.7.19,2.44-.19,5.11.67,7.28,3.74,9.4,7.83,18.66,11.85,27.94.41.95,1.19,1.73,2.25,3.24,0-2.04.03-3.19,0-4.33-.33-11.49-.21-22.95,1.96-34.29,1.27-6.66,2.58-13.31,3.87-19.96ZM378.75,64.85c1-1.07,2.05-2.1,3-3.21,4.62-5.4,9.15-10.87,13.83-16.21,3.58-4.07,7.62-5.76,13.15-3.2,5.41,2.51,11.31,2.3,16.98.63,3.1-.91,6.14-2.22,8.99-3.75,1.99-1.07,2.16-2.93,1.15-5.16-1.62-3.59-9.43-8.9-13.27-8.11-6.78,1.4-13.52,3.05-19.45,6.93-6.29,4.12-11.94,9.05-15.98,15.35-3.35,5.21-5.73,11.05-8.54,16.61-.26.35-.52.69-.79,1.04.18.13.36.26.55.38.12-.44.25-.87.37-1.31ZM315.67,163.08c-.65-.06-1.29-.13-1.94-.19-.7-.25-1.41-.51-2.11-.76-11.57-2.98-23.35-3.87-35.11-2.03-31.68,4.95-54.86,21.76-68.67,50.88-8.98,18.93-11.04,38.96-7.59,59.46,2.46,14.63,6.87,28.74,14.53,41.63.59,1.35.98,2.85,1.81,4.04,5.85,8.47,11.59,17.04,17.75,25.28,11.88,15.9,28.67,23.93,47.44,28.06,7.67,1.69,15.09,3.71,22.3,6.79,2.47,1.06,5.45,1.42,8.16,1.3,4.63-.21,9.23-1.06,13.83-1.65,20.12-2.59,39.97-6.47,59.19-13.1,19.96-6.88,37.98-16.91,51.97-33.12,8.55-9.91,15.39-20.83,18.09-33.91,5.15-16.17,3.99-32.3-.25-49.44-1.11,8.19-2.96,15.05-7.58,20.81-6.18,7.71-15.73,8.4-22.46,1.2-2.99-3.21-5.53-7.14-7.27-11.17-4.62-10.67-5.21-21.9-2.83-33.22,2.37-11.29,8.08-17.08,17.88-18.63,1.51.49,3.02.97,4.65,1.49,0-.63.11-.98-.02-1.2-7.66-13.25-16.7-25.45-27.86-35.97-1.98-1.86-4.57-3.08-6.88-4.59-4.13-6.81-6.54-7.76-13.81-5.14-2,.72-3.94,1.75-5.74,2.9-6.58,4.2-11.32,10.12-15.24,16.77-1.32,2.25-2.59,4.53-3.88,6.79-2.22-1.42-4.47-2.8-6.66-4.26-12.86-8.61-26.48-15.57-41.7-19.01ZM227.66,113.01c-2.51.62-5.09,1.05-7.52,1.88-10.52,3.62-21,7.36-31.49,11.05-3.53,1.38-7.07,2.73-10.58,4.14-1.55.62-2.43,1.29-1.15,3.25,4.41,6.79,8.61,13.72,12.88,20.6,2.42,5.44,4.8,10.91,7.28,16.33,1.3,2.84,2.44,5.85,4.26,8.33,1.69,2.31,3.71,4.24,3.56,7.38-.02.43.33.88.51,1.32.51-.27,1.17-.42,1.51-.83,1.81-2.15,3.45-4.45,5.32-6.54,10.4-11.61,22.59-20.9,36.41-28.08,22.29-11.58,46.28-16.21,71.11-16.97,9.08-.28,18.22.33,27.3.97,7.37.52,14.71,1.64,22.04,2.63,4.65.63,9.26,1.51,13.92,2.28,0-.55.07-.77-.01-.88-.4-.53-.79-1.07-1.26-1.52-8.71-8.37-18.8-14.56-29.97-19.06-2.28-.92-2.94-.13-3.12,2.11-.09,1.12-.82,3.05-1.41,3.1-2.43.22-5.08.35-7.28-.49-.91-.35-.76-3.23-1.29-4.9-.75-2.37-.11-5.6-3.62-6.37-7.87-1.71-15.75-3.39-23.63-5.08-3.56-.56-7.11-1.43-10.69-1.63-24.7-1.37-49.11.62-73.09,6.96ZM175.99,108.31c1.85-.72,3.66-1.56,5.55-2.13,2.29-.68,2.49-1.46.89-3.33-3.43-4.04-6.63-8.27-9.91-12.44-7.89-10.06-13.68-21.39-19.63-32.63-1.4-3.24-2.83-6.48-4.18-9.74-.27-.64-.27-1.4-.4-2.1.81.4,1.62.79,2.42,1.19,8.73,19.2,20.52,36.4,34.26,52.32,3.2,3.7,3.19,3.44,7.83,1.94,3.01-.97,2.68-2.43,1.76-4.69-3.86-9.51-7.82-18.99-11.35-28.62-3.4-9.29-8.08-17.79-14.17-25.53-2.77-3.52-5.71-6.91-8.57-10.35.28-.33.56-.66.84-.99,10.11,8.43,18,18.63,23.4,30.6,4.98,11.04,9.56,22.27,14.2,33.46.94,2.26,2.06,3.13,4.43,2.16,1.68-.69,3.45-1.19,5.18-1.75,4.12-1.34,4.3-1.4,2.83-5.19-2.16-5.56-4.26-11.18-6.97-16.48-11.36-22.16-27.94-39.43-49.49-51.91-6.82-4.93-12.54-5.09-16.75.31-12.44,15.91-18.24,33.72-14.22,54.02.24,1.22.78,2.7,1.69,3.43,4.53,3.68,9.22,7.15,13.86,10.69l.96-.38c-9.86-13.89-12.33-28.59-5.71-44.25.26,1.92-.04,3.84-.33,5.77-1.76,11.79.03,22.83,6.91,32.8,7,10.14,16.12,18.01,26.14,25.02,2.2,1.54,3.87,2.04,6.02.37.78-.6,1.66-1.07,2.5-1.59ZM167.87,187.49c.47-.18.93-.36,1.4-.53,3.95-1.21,7.89-2.45,11.86-3.62,2.08-.61,1.95-1.78,1.17-3.4-1.88-3.88-3.56-7.86-5.5-11.71-23.32-46.09-57.86-79.84-107.33-96.75-9.17-3.13-18.94-4.51-28.44-6.69-3.73-.59-7.46-1.61-11.2-1.67-6.12-.1-9.35,2.76-10.91,8.81-3.06,11.91-1.89,23.8.72,35.55,5.27,23.78,18.1,43.02,36.65,58.39,25.53,21.15,54.95,30.31,87.98,26.68,7.3-.8,14.44-3.13,21.65-4.75.65-.1,1.3-.21,1.95-.31ZM431.48,233.78c1.2-.32,3.51-.72,5.63-1.57,2.99-1.21,4.92-3.59,5.04-6.86.11-3.04-1.59-5.3-4.13-6.97-4.33-2.84-11.46-2.65-16.05.49-4.1,2.81-4.64,7.64-1.1,11.12,2.6,2.56,5.88,3.63,10.62,3.78ZM221.67,91.12c-2.55-10.74-6.21-20.94-13.97-29.1,4.66,9.7,9.31,19.4,13.97,29.1ZM127.9,20.21c.28.25.56.5.83.76,3.02-3.15,6.06-6.28,9.02-9.48.43-.47.44-1.32.64-1.99-.76.11-1.72-.04-2.25.37-3.6,2.79-6.39,6.24-8.25,10.35ZM321.24,56.29c.11-.1.33-.22.31-.29-.07-.26-.21-.49-.32-.74-.11.1-.33.22-.31.29.07.26.21.5.32.74Z"/><path class="cls-4" d="M432.82,205.3c-9.79,1.55-15.51,7.34-17.88,18.63-2.38,11.32-1.79,22.55,2.83,33.22,1.75,4.03,4.28,7.96,7.27,11.17,6.73,7.21,16.28,6.51,22.46-1.2,4.62-5.76,6.48-12.62,7.58-20.81,4.24,17.14,5.4,33.27.25,49.44-.87.89-1.96,1.65-2.56,2.69-4.13,7.12-9.64,13.14-15.84,18.34-15.2,12.73-32.98,20.56-51.89,25.91-5.03,1.42-10.28,2.06-15.42,3.06,1.18-2.64,2.43-5.26,3.54-7.94,3.19-7.69,6.34-15.41,9.5-23.11,1.79-.3,3.58-.61,5.37-.89,8.29-1.29,15.44-4.6,20.64-11.46.9-1.18,1.98-2.22,2.88-3.4,2.45-3.22,5.42-4.09,9.07-2.15.08.11.16.24.26.34.05.04.16,0,.25,0-.19-.09-.38-.18-.57-.26-1.88-4.42-6.51-5.81-10.73-2.84-2.25,1.59-4.04,3.85-5.98,5.87-5.5,5.73-12.06,9.04-20.13,9.01.67-7.73,1.6-15.44,1.93-23.19.4-9.44.06-18.86-1.95-28.17-3.37-15.66-8.79-30.49-17.19-44.17-7.54-12.28-17.12-22.73-28.34-31.73-2.62-2.11-4.98-4.55-7.46-6.84,1.26.29,2.58.44,3.78.89,9.47,3.55,18.07,8.72,26.51,14.2,4.21,2.73,5.01,2.75,7.24-1.47,2.99-5.67,7.22-10.24,11.83-14.49,5.28-4.87,11.47-7.63,18.85-7-.56,2.62,1.41,3.89,2.93,5.36,8.68,8.4,17.5,16.67,26.02,25.23,2.12,2.13,3.32,5.16,4.95,7.77Z"/><path class="cls-3" d="M165.92,187.8c-7.21,1.62-14.35,3.95-21.65,4.75-33.03,3.62-62.45-5.54-87.98-26.68-18.56-15.37-31.38-34.61-36.65-58.39-2.6-11.75-3.77-23.64-.72-35.55,1.55-6.05,4.78-8.9,10.91-8.81,3.74.06,7.47,1.08,11.2,1.67,2.1,8.65,4.56,17.14,8.89,25.02.95,1.73.7,4.13,1,6.22-3.94-1.25-6.04-5.87-10.87-5.61,6.67,5.39,13.34,10.77,20.01,16.16.41.34.82.69,1.23,1.03,0,0,.11-.08.11-.08.66,1.37,1,3.07,2.02,4.07,6.73,6.61,13.32,13.4,20.51,19.48,8.54,7.22,17.57,13.86,26.5,20.61,2.49,1.88,5.35,3.25,8.01,4.92.47.3.74.91,1.1,1.38-.54.27-1.09.78-1.62.75-2.03-.09-3.24.5-2.91,2.8-16.52-2.64-32.13-7.94-46.87-15.85-18.42-9.89-32.13-23.93-39.14-43.98-.37-1.05-.96-2.01-1.67-3.47-.1.92-.19,1.25-.15,1.57.06.49.19.98.33,1.46,4.08,14.46,11.53,26.9,22.96,36.65,16.68,14.23,36.15,22.75,57.57,26.81,19.06,3.61,37.33,9.22,53.78,19.89.93.6,2.11.81,3.17,1.2l-.11-.1c.35.35.7.7,1.05,1.06,0,.35.01.69.02,1.04ZM22.23,82.83c-2.83,13.66-1.61,26.74,7,38.6-5.42-12.36-7.15-25.29-7-38.6Z"/><path class="cls-8" d="M50.92,96.03c-.3-2.09-.05-4.49-1-6.22-4.33-7.88-6.79-16.37-8.89-25.02,9.49,2.19,19.27,3.56,28.44,6.69,49.47,16.91,84.01,50.66,107.33,96.75,1.95,3.85,3.62,7.83,5.5,11.71.79,1.62.91,2.79-1.17,3.4-3.96,1.17-7.91,2.41-11.86,3.62-.47.18-.93.36-1.4.53l-1.95.31c0-.35-.01-.69-.02-1.04-.35-.35-.7-.7-1.05-1.06l.11.1c-.64-.84-1.13-1.86-1.93-2.5-9.18-7.47-19.55-12.79-30.73-16.53-5.71-1.91-11.54-3.5-17.31-5.23-.33-2.3.88-2.89,2.91-2.8.53.02,1.08-.49,1.62-.75-.36-.47-.63-1.09-1.1-1.38-2.65-1.67-5.52-3.04-8.01-4.92-8.92-6.75-17.96-13.39-26.5-20.61-7.19-6.08-13.78-12.87-20.51-19.48-1.02-1-1.36-2.7-2.02-4.07,23.13,16.23,47.06,31.34,69.58,48.65-.82-1.66-1.84-3.2-3.17-4.4-12.74-11.47-26.56-21.52-40.85-30.98-12.15-8.05-24.04-16.5-36.04-24.77ZM173.4,175.5c.49,0,.99-.01,1.48-.02-.27-.29-.55-.58-.82-.87-1.35-1.21-2.63-2.51-4.06-3.61-26.92-20.61-51.8-43.1-70.89-71.6-9.72-14.51-24.45-23.13-40.64-29.15-1.19-.44-2.59-.33-3.9-.47,17.3,8.27,32.87,18.22,43.38,34.75,6.78,10.66,14.19,20.87,22.95,30.07,15.47,16.27,33.5,29.2,52.51,40.9Z"/><path class="cls-9" d="M369.62,345.74c5.15-1,10.4-1.64,15.42-3.06,18.92-5.34,36.7-13.18,51.89-25.91,6.21-5.2,11.71-11.22,15.84-18.34.6-1.04,1.69-1.8,2.56-2.69-2.69,13.09-9.54,24-18.09,33.91-13.99,16.21-32.01,26.24-51.97,33.12-19.23,6.63-39.07,10.51-59.19,13.1-4.61.59-9.21,1.44-13.83,1.65-2.71.13-5.69-.24-8.16-1.3-7.21-3.08-14.63-5.11-22.3-6.79-18.78-4.12-35.56-12.16-47.44-28.06-6.16-8.25-11.9-16.81-17.75-25.28-.82-1.19-1.22-2.69-1.81-4.04.74-5.45,2.38-7.41,6.92-8.26,8.82,14.37,21.05,25.06,35.86,32.84,18.27,9.59,38.13,12.78,58.39,14.06,13.28.84,26.49-.69,39.67-2.05,4.71-.49,9.33-1.91,14-2.9Z"/><path class="cls-1" d="M311.43,107.68c7.88,1.69,15.76,3.37,23.63,5.08,3.52.77,2.87,4,3.62,6.37.53,1.67.38,4.55,1.29,4.9,2.19.84,4.85.71,7.28.49.58-.05,1.31-1.99,1.41-3.1.18-2.23.84-3.03,3.12-2.11,11.17,4.5,21.26,10.69,29.97,19.06.47.45.87.99,1.26,1.52.08.11.01.32.01.88-4.67-.77-9.28-1.65-13.92-2.28-7.33-.99-14.67-2.1-22.04-2.63-9.08-.64-18.22-1.25-27.3-.97-24.82.76-48.82,5.39-71.11,16.97-13.81,7.18-26.01,16.47-36.41,28.08-1.87,2.09-3.51,4.39-5.32,6.54-.34.41-1,.56-1.51.83-.18-.44-.53-.89-.51-1.32.15-3.14-1.87-5.08-3.56-7.38-1.82-2.49-2.96-5.49-4.26-8.33-2.48-5.42-4.86-10.88-7.28-16.33,9.4-5.74,18.8-11.48,28.2-17.22,3.28-.97,6.56-1.95,9.84-2.92.53,2.96,2.39,2.04,4.12,1.39,8.02-3,15.96-6.24,24.07-8.96,12.64-4.23,25.37-8.25,38.16-12.01,2.3-.67,3.42-1.99,4.72-3.52,4.18-1.01,8.35-2.02,12.53-3.03Z"/><path class="cls-6" d="M144.17,215.88c-1.72,8.77-3.9,17.47-5.06,26.31-1.71,13.06-1.42,26.23-.11,39.34,1.89,18.95,6.2,37.31,14.27,54.66,1.79,3.85,3.87,7.57,5.82,11.35.03,2.47-.12,4.64-3.4,2.36-.21-.15-.64.02-.96.03,0,0,.04.03.04.03.04-3.22-2.37-1.87-3.93-2.1v.02c-.59-3.67-3.34-1.6-5.19-1.95-.27.05-.51-.01-.71-.19-.8-.26-1.6-.52-2.39-.78l-.33.03-.29-.17c-2.59-4.18-5.3-8.29-7.75-12.55-8.09-14.1-15.3-28.64-19.05-44.56-2.15-9.12-4.22-18.37-5-27.67-1.33-15.72.44-31.4,2.8-46.99.32-2.14,1.47-2.23,3.06-2.29,2.95-.11,5.9-.31,8.85-.48,3.41.02,6.83.04,10.24.06,2.42.15,4.87.13,7.25.54.98.17,1.8,1.29,2.7,1.98-.28,1.01-.55,2.01-.83,3.02Z"/><path class="cls-1" d="M144.17,215.88c.28-1.01.55-2.01.83-3.02.57-.99,1.14-1.99,1.71-2.98,10.13-2.09,20.38-3.76,30.36-6.41,7.14-1.9,13.93-5.11,20.89-7.71.73-.27,1.51-.39,2.27-.58-.13.89-.03,1.9-.43,2.65-4.69,8.8-8.35,18.02-10.69,27.69-1.47,6.05-2.22,12.28-3.23,18.44-.42,2.6-.88,5.21-.96,7.83-.36,11.29,1.12,22.37,3.86,33.31.98,3.9.85,3.92-2.92,2.79-8.3-2.5-16.04-5.83-22.52-11.99-8.11-7.72-12.89-17.06-15.42-27.77-2.05-8.71-2.82-17.56-3.04-26.48-.05-1.92-.46-3.84-.71-5.75Z"/><path class="cls-1" d="M323.15,398.16c.92.14,2.42,0,2.66.48,1.46,2.94,2.88,5.95,3.83,9.08.69,2.28.04,4.06-3.08,4.29-4.25.32-8.44,1.46-12.68,1.71-11.94.7-23.87-.12-35.44-3.08-12.38-3.18-24.24-7.88-34.69-15.52-3.46-2.53-6.86-5.19-10.05-8.06-2.51-2.26-2.42-2.94.37-4.33,7.85-3.94,15.99-7.07,24.84-7.95,3.11-.31,6.22-.94,9.33-.93,6.02.02,12.26-1.29,17.41,2.52-1.02.38-2.45.91-3.87,1.44-6.24.73-12.49,1.47-18.73,2.2,1.88.41,3.7.3,5.51.2,16.48-.9,31.97,2.14,45.86,11.54,2.85,1.93,5.59,4.04,8.37,6.07l-.11-.09c.12.29.24.58.36.87.04-.15.07-.29.11-.44Z"/><path class="cls-8" d="M160.52,32.2c2.86,3.45,5.8,6.83,8.57,10.35,6.08,7.74,10.77,16.24,14.17,25.53,3.53,9.63,7.49,19.11,11.35,28.62.92,2.26,1.24,3.72-1.76,4.69-4.65,1.5-4.63,1.76-7.83-1.94-13.74-15.92-25.53-33.12-34.26-52.32.14-2.75-.14-5.5,3.49-6.74.96-.33,1.57-3.03,1.55-4.63-.06-4.55-.54-9.1-.85-13.64,21.54,12.48,38.13,29.75,49.49,51.91,2.71,5.29,4.82,10.92,6.97,16.48,1.47,3.79,1.29,3.85-2.83,5.19-1.73.56-3.5,1.06-5.18,1.75-2.37.98-3.49.1-4.43-2.16-4.64-11.19-9.22-22.42-14.2-33.46-5.4-11.98-13.28-22.18-23.4-30.6-.77.02-1.53.04-2.29.06.49.31.97.61,1.46.92Z"/><path class="cls-3" d="M154.93,22.11c.31,4.55.79,9.09.85,13.64.02,1.6-.59,4.3-1.55,4.63-3.63,1.25-3.35,3.99-3.49,6.74-.81-.4-1.62-.79-2.42-1.19.13.7.13,1.46.4,2.1,1.36,3.26,2.78,6.5,4.18,9.74-2.37.17-2.1,1.47-1.45,3.12,1.57,3.99,2.85,8.1,4.61,12,4.52,9.96,9.25,19.83,17.15,27.7,2.18,2.17,2.91,4.76,2.77,7.71-.84.53-1.72.99-2.5,1.59-2.15,1.67-3.82,1.17-6.02-.37-10.02-7.01-19.14-14.88-26.14-25.02-6.89-9.97-8.67-21.01-6.91-32.8.29-1.92.59-3.85.33-5.77-6.62,15.65-4.15,30.36,5.71,44.25l-.96.38c-4.64-3.54-9.33-7.01-13.86-10.69-.91-.74-1.45-2.21-1.69-3.43-4.03-20.3,1.78-38.11,14.22-54.02,4.22-5.4,9.94-5.24,16.75-.31ZM135.84,43.82c-.15-.26-.3-.51-.44-.77-.16.25-.47.53-.44.76.03.28.35.53.55.79.11-.26.22-.52.34-.78Z"/><path class="cls-4" d="M221.7,303.81c-4.54.85-6.18,2.81-6.92,8.26-7.66-12.89-12.07-27-14.53-41.63-3.45-20.49-1.39-40.53,7.59-59.46,13.81-29.12,37-45.93,68.67-50.88,11.76-1.84,23.54-.94,35.11,2.03-1.93.18-3.89.67-5.77.45-2.02-.23-4.38-2.03-5.67.34-.44.82,1.68,3.03,2.63,4.61-8.39-1.58-16.81-.78-25.09.48-10,1.53-19.47,4.99-28.36,9.93-14.82,8.23-25.54,20.2-32.59,35.55-4.37,9.51-6.96,19.4-8.25,29.88-1.32,10.72-.24,21.06,1.86,31.42,2.09,10.3,6.58,19.72,11.32,29.01Z"/><path class="cls-9" d="M124.82,210.28c-2.95.16-5.9.37-8.85.48-1.59.06-2.74.15-3.06,2.29-2.35,15.59-4.12,31.26-2.8,46.99.79,9.3,2.86,18.55,5,27.67,3.75,15.92,10.97,30.45,19.05,44.56,2.44,4.26,5.16,8.37,7.75,12.55-4.3-.2-8.61-.27-12.89-.69-1.28-.13-2.91-.93-3.64-1.95-11.14-15.69-20.47-32.41-23.71-51.57-1.7-10.05-1.79-20.53-1.38-30.76.62-15.27,3.63-30.24,8.68-44.73.49-1.41.83-2.94,1.64-4.14.61-.89,1.91-1.92,2.85-1.88,3.79.18,7.56.76,11.34,1.19Z"/><path class="cls-6" d="M218,136.71c-9.4,5.74-18.8,11.48-28.2,17.22-4.28-6.88-8.47-13.81-12.88-20.6-1.28-1.96-.4-2.63,1.15-3.25,3.52-1.41,7.05-2.76,10.58-4.14.88,2.77,2.89,3.81,5.67,3.94,9.78.45,19.28-.87,28.17-5.05,9.16-4.3,8.32-2.71,5.17-11.83,23.98-6.34,48.38-8.33,73.09-6.96,3.58.2,7.13,1.07,10.69,1.63-4.18,1.01-8.35,2.02-12.53,3.03-.87-.15-1.78-.55-2.61-.42-5.19.79-10.36,1.7-15.54,2.56-2.36.11-4.71.21-7.07.32-1.97.23-3.93.47-5.9.7-1.71.28-3.43.55-5.14.83-2.63.67-5.23,1.78-7.89,1.91-8.23.41-15.79,3.25-23.29,6.18-3.66,1.43-7.17,3.39-10.5,5.51-3.53,2.25-4.01,4.22-2.98,8.42Z"/><path class="cls-1" d="M145.08,353.75c1.9.15,3.92-.07,5.67.51,6.26,2.07,10.35,7.04,14.59,11.7.67.73,2.49,2.86-.82,2.8-12.1-.2-22.85,4.55-33.7,9.02-5.68,2.34-11.43,4.49-17.68,1.62-5.03-2.3-8.49-11.15-5.92-15.91.51-.94,1.76-1.46,2.67-2.18.36-.53.72-1.07,1.08-1.6l-.1.09c.49-.05,1.03.02,1.46-.17,9.62-4.38,19.61-6.44,30.2-4.95.79.11,1.69-.6,2.54-.93Z"/><path class="cls-1" d="M294.95,39.2c2.53.54,5.33.57,7.54,1.73,4.5,2.36,8.7,5.3,12.95,8.11.55.37.68,1.37,1.01,2.08-.74-.04-1.67.19-2.18-.17-2.93-2.11-4.83-.59-6.8,1.56-2.47,2.69-5.23,5.11-7.68,7.82-3.37,3.73-7.73,5.65-12.34,7.05-4.95,1.5-12.53-1.06-15.29-4.9-2.87-4-3.44-12.75-.79-16.57,1.03-1.49,2.14-3.6,4.72-2.78-.18.94-.36,1.87-.54,2.81.74-.48,1.45-1.02,2.22-1.44,2.44-1.32,4.78-3.02,7.4-3.79,3.14-.92,6.52-1.04,9.79-1.51Z"/><path class="cls-9" d="M302.81,167.53c-.95-1.58-3.07-3.79-2.63-4.61,1.29-2.38,3.65-.58,5.67-.34,1.88.22,3.85-.27,5.77-.45.7.25,1.41.51,2.11.76.65.06,1.29.13,1.94.19,15.21,3.44,28.83,10.4,41.7,19.01,2.19,1.47,4.44,2.84,6.66,4.26,1.29-2.26,2.56-4.54,3.88-6.79,3.92-6.64,8.66-12.57,15.24-16.77,1.8-1.15,3.74-2.18,5.74-2.9,7.28-2.62,9.68-1.67,13.81,5.14l-3.78,1.9c-7.38-.63-13.56,2.13-18.85,7-4.61,4.25-8.84,8.83-11.83,14.49-2.23,4.23-3.03,4.21-7.24,1.47-8.44-5.48-17.05-10.65-26.51-14.2-1.2-.45-2.52-.6-3.78-.89-.92-.32-1.87-.59-2.77-.98-6.8-3-13.79-5.3-21.2-6.18-.4-.52-.8-1.04-1.2-1.56-.27.5-.55,1-.82,1.5l-1.91-.06Z"/><path class="cls-1" d="M378.62,64.74c2.81-5.56,5.2-11.39,8.54-16.61,4.04-6.29,9.69-11.23,15.98-15.35,5.92-3.88,12.67-5.54,19.45-6.93,3.84-.79,11.65,4.52,13.27,8.11,1,2.23.84,4.09-1.15,5.16-2.85,1.53-5.89,2.84-8.99,3.75-5.68,1.67-11.57,1.88-16.98-.63-5.52-2.56-9.57-.87-13.15,3.2-4.69,5.34-9.22,10.81-13.83,16.21-.95,1.11-2,2.14-3,3.21,0,0-.13-.11-.13-.11Z"/><path class="cls-9" d="M79.76,230.55c-1.29,6.65-2.6,13.3-3.87,19.96-2.17,11.34-2.29,22.81-1.96,34.29.03,1.15,0,2.29,0,4.33-1.06-1.51-1.84-2.29-2.25-3.24-4.02-9.29-8.11-18.54-11.85-27.94-.86-2.17-.48-4.84-.67-7.28,5.84-.22,9.92-3.51,13.06-7.99,2.72-3.89,5.03-8.07,7.53-12.13Z"/><path class="cls-8" d="M227.66,113.01c3.15,9.12,3.99,7.53-5.17,11.83-8.9,4.17-18.39,5.5-28.17,5.05-2.78-.13-4.79-1.18-5.67-3.94,10.49-3.69,20.97-7.43,31.49-11.05,2.44-.84,5.01-1.27,7.52-1.88Z"/><path class="cls-8" d="M431.48,233.78c-4.73-.15-8.02-1.22-10.62-3.78-3.54-3.48-2.99-8.32,1.1-11.12,4.59-3.15,11.72-3.34,16.05-.49,2.54,1.66,4.23,3.92,4.13,6.97-.11,3.27-2.05,5.65-5.04,6.86-2.12.86-4.42,1.25-5.63,1.57Z"/><path class="cls-7" d="M398.92,166.93l3.78-1.9c2.31,1.51,4.9,2.72,6.88,4.59,11.16,10.52,20.2,22.72,27.86,35.97.13.22.02.57.02,1.2-1.63-.52-3.14-1.01-4.65-1.49-1.63-2.62-2.83-5.65-4.95-7.77-8.52-8.56-17.34-16.83-26.02-25.23-1.52-1.47-3.48-2.74-2.93-5.36Z"/><path class="cls-8" d="M79.76,230.55c-2.49,4.05-4.8,8.23-7.53,12.13-3.14,4.49-7.22,7.77-13.06,7.99,4.62-12.22,12.23-22.58,20.24-32.7,1.77-2.23,3.75-4.3,5.63-6.44.39.24.78.48,1.18.72-2.15,6.1-4.3,12.2-6.45,18.3Z"/><path class="cls-8" d="M175.99,108.31c.13-2.95-.59-5.53-2.77-7.71-7.89-7.87-12.63-17.74-17.15-27.7-1.77-3.89-3.04-8.01-4.61-12-.65-1.65-.92-2.95,1.45-3.12,5.95,11.24,11.73,22.57,19.63,32.63,3.27,4.17,6.47,8.41,9.91,12.44,1.59,1.87,1.4,2.65-.89,3.33-1.89.56-3.71,1.41-5.55,2.13Z"/><path class="cls-5" d="M322.79,397.82c-2.79-2.03-5.52-4.14-8.37-6.07-13.88-9.39-29.38-12.43-45.86-11.54-1.82.1-3.64.21-5.51-.2,6.24-.73,12.49-1.47,18.73-2.2,2.47.12,4.95.24,7.42.35.86.18,1.71.36,2.57.54,6.74,1.67,13.48,3.36,19.33,7.35,4.64,3.16,9.31,6.34,11.7,11.76Z"/><path class="cls-5" d="M145.08,353.75c-.85.33-1.75,1.04-2.54.93-10.6-1.48-20.58.57-30.2,4.95-.42.19-.97.12-1.46.17.99-1.05,1.81-2.36,2.99-3.1,9.29-5.78,19.27-7.07,29.78-4.16.55.15.96.79,1.43,1.2Z"/><path class="cls-9" d="M154.72,349.93c.33-.02.75-.18.96-.03,3.28,2.29,3.43.11,3.4-2.36,6.66,8.72,13.32,17.44,19.95,26.11-2.75-.44-4.89-1.74-6.55-4.69-4.08-7.22-9.14-13.67-16.9-17.42-.44-.21-.58-1.06-.86-1.6Z"/><path class="cls-9" d="M221.67,91.12c-4.66-9.7-9.31-19.4-13.97-29.1,7.75,8.16,11.42,18.35,13.97,29.1Z"/><path class="cls-5" d="M294.95,39.2c-3.28.47-6.65.59-9.79,1.51-2.61.77-4.95,2.47-7.4,3.79-.77.42-1.48.96-2.22,1.44.18-.94.36-1.87.54-2.81,0,0-.05-.11-.05-.11.26-.42.51-.83.77-1.25,5.66-3.6,11.69-4.56,18.14-2.59Z"/><path class="cls-9" d="M127.9,20.21c1.86-4.11,4.65-7.56,8.25-10.35.53-.41,1.49-.26,2.25-.37-.2.67-.21,1.53-.64,1.99-2.96,3.21-6.01,6.33-9.02,9.48-.28-.25-.56-.5-.83-.76Z"/><path class="cls-9" d="M146.71,209.88c-.57.99-1.14,1.99-1.71,2.98-.89-.69-1.71-1.8-2.7-1.98-2.37-.42-4.83-.39-7.25-.54,3.88-.15,7.77-.31,11.65-.46Z"/><path class="cls-9" d="M145.64,345.93c1.85.35,4.59-1.72,5.2,1.95-1.73-.65-3.46-1.3-5.2-1.95Z"/><path class="cls-9" d="M150.83,347.86c1.56.23,3.97-1.12,3.93,2.1-1.31-.7-2.62-1.4-3.93-2.1Z"/><path class="cls-5" d="M323.15,398.16c-.04.15-.07.29-.11.44-.12-.29-.24-.58-.36-.87.06.25.21.4.47.43Z"/><path class="cls-4" d="M315.67,163.08c-.65-.06-1.29-.13-1.94-.19.65.06,1.29.13,1.94.19Z"/><path class="cls-1" d="M291.76,378.7c-.86-.18-1.71-.36-2.57-.54.86.18,1.71.36,2.57.54Z"/><path class="cls-1" d="M378.75,64.85c-.12.44-.25.87-.37,1.31-.18-.13-.36-.26-.55-.38.26-.35.52-.69.79-1.04,0,0,.13.11.13.11Z"/><path class="cls-1" d="M321.24,56.29c-.11-.24-.26-.48-.32-.74-.02-.06.2-.19.31-.29.11.24.26.48.32.74.02.06-.2.19-.31.29Z"/><path class="cls-9" d="M142.53,344.95c.8.26,1.6.52,2.39.78-.8-.26-1.6-.52-2.39-.78Z"/><path class="cls-1" d="M276.81,41.79c-.26.42-.51.83-.77,1.25.26-.42.51-.83.77-1.25Z"/><path class="cls-5" d="M110.98,359.72c-.36.53-.72,1.07-1.08,1.6.36-.53.72-1.07,1.08-1.6Z"/><path class="cls-8" d="M330.46,91.31c-.38.3-.77.61-1.15.91.38-.3.77-.61,1.15-.91Z"/><path class="cls-3" d="M167.87,187.49c.47-.18.93-.36,1.4-.53-.47.18-.93.36-1.4.53Z"/><path class="cls-5" d="M302.81,167.53l1.91.06c.67.02,1.35.04,2.02.06,7.41.88,14.4,3.18,21.2,6.18.89.39,1.84.66,2.77.98,2.48,2.29,4.83,4.73,7.46,6.84,11.22,9,20.81,19.45,28.34,31.73,8.39,13.68,13.81,28.52,17.19,44.17,2.01,9.32,2.35,18.74,1.95,28.17-.33,7.74-1.26,15.46-1.93,23.19-1.8.12-3.62.44-5.4.32-6.49-.46-12.16-3.1-17.41-6.81-2.44-1.72-4.86-3.56-7.52-4.86-4.97-2.42-9.47-.44-11.35,4.64,5.1-3.16,5.6-3.14,10.75.52.41.29.83.56,1.2.89,8.18,7.27,17.83,10.73,28.67,11.07-3.16,7.71-6.3,15.42-9.5,23.11-1.11,2.68-2.36,5.29-3.54,7.94-4.66,1-9.28,2.42-14,2.9-13.18,1.37-26.39,2.89-39.67,2.05-20.26-1.27-40.12-4.47-58.39-14.06-14.82-7.78-27.04-18.46-35.86-32.84-4.74-9.29-9.23-18.71-11.32-29.01-2.1-10.36-3.18-20.7-1.86-31.42,1.29-10.48,3.88-20.37,8.25-29.88,7.05-15.35,17.77-27.32,32.59-35.55,8.9-4.94,18.36-8.4,28.36-9.93,8.28-1.27,16.7-2.07,25.09-.48ZM298.71,303.97c24.68.09,43.92-19.18,43.96-44.01.04-24.24-19.9-45.04-43.64-44.86-26.52.2-43.36,22.3-43.28,44.35.09,24.71,18.98,44.44,42.96,44.52ZM262,297.81c-.07.31-.14.62-.21.94-1.83,0-3.73-.33-5.47.07-3.67.84-7.46,1.62-10.81,3.23-3.77,1.81-3.93,5.25-.87,8.09.95.88,2.1,1.72,3.3,2.15,9.71,3.43,19.4,3.7,29-.47,2.4-1.04,5.01-2.73,4.49-5.26-.4-1.98-2.71-4.36-4.7-5.07-4.75-1.69-9.81-2.5-14.74-3.66Z"/><path class="cls-2" d="M382.66,314.69c-10.85-.34-20.49-3.81-28.67-11.07-.37-.33-.8-.6-1.2-.89-5.15-3.66-5.65-3.69-10.75-.52,1.88-5.09,6.38-7.06,11.35-4.64,2.66,1.3,5.08,3.13,7.52,4.86,5.25,3.71,10.92,6.35,17.41,6.81,1.78.13,3.6-.2,5.4-.32,8.06.03,14.63-3.28,20.13-9.01,1.94-2.02,3.73-4.28,5.98-5.87,4.22-2.97,8.86-1.59,10.73,2.84l.06-.08c-3.65-1.94-6.62-1.07-9.07,2.15-.9,1.18-1.99,2.22-2.88,3.4-5.2,6.87-12.35,10.18-20.64,11.46-1.79.28-3.58.59-5.37.89Z"/><path class="cls-2" d="M420.55,296.87c.19.09.38.18.57.26-.08,0-.2.03-.25,0-.1-.09-.18-.22-.26-.34l-.06.08Z"/><path class="cls-2" d="M115,161.55c5.77,1.73,11.6,3.32,17.31,5.23,11.17,3.74,21.54,9.06,30.73,16.53.8.65,1.29,1.66,1.93,2.5-1.06-.39-2.24-.6-3.17-1.2-16.44-10.66-34.72-16.27-53.78-19.89-21.43-4.06-40.89-12.59-57.57-26.81-11.43-9.75-18.88-22.19-22.96-36.65-.13-.48-.27-.96-.33-1.46-.04-.32.06-.65.15-1.57.71,1.46,1.31,2.43,1.67,3.47,7,20.05,20.72,34.1,39.14,43.98,14.74,7.91,30.36,13.21,46.87,15.85Z"/><path class="cls-2" d="M50.92,96.03c12,8.27,23.89,16.73,36.04,24.77,14.29,9.46,28.1,19.5,40.85,30.98,1.33,1.2,2.35,2.75,3.17,4.4-22.52-17.32-46.44-32.42-69.58-48.65l-.11.08c-.41-.34-.82-.69-1.23-1.03-6.67-5.39-13.34-10.77-20.01-16.16,4.83-.26,6.93,4.36,10.87,5.61Z"/><path class="cls-1" d="M22.23,82.83c-.15,13.31,1.58,26.25,7,38.6-8.61-11.87-9.83-24.95-7-38.6Z"/><path class="cls-8" d="M60.06,106.58c.41.34.82.69,1.23,1.03-.41-.34-.82-.69-1.23-1.03Z"/><path class="cls-2" d="M164.85,185.71c.35.35.7.7,1.05,1.06-.35-.35-.7-.7-1.05-1.06Z"/><path class="cls-2" d="M173.4,175.5c-19.01-11.7-37.03-24.63-52.51-40.9-8.76-9.21-16.17-19.41-22.95-30.07-10.51-16.53-26.07-26.48-43.38-34.75,1.3.14,2.7.03,3.9.47,16.18,6.03,30.92,14.65,40.64,29.15,19.09,28.5,43.98,51,70.89,71.6,1.43,1.1,2.71,2.4,4.06,3.61-.22.3-.44.59-.66.89Z"/><path class="cls-2" d="M174.06,174.61c.27.29.55.58.82.87-.49,0-.99.01-1.48.02.22-.3.44-.59.66-.89Z"/><path class="cls-2" d="M280.76,112.84c5.18-.87,10.35-1.77,15.54-2.56.83-.13,1.74.27,2.61.42-1.3,1.53-2.43,2.84-4.72,3.52-12.79,3.75-25.51,7.77-38.16,12.01-8.11,2.72-16.05,5.96-24.07,8.96-1.73.65-3.59,1.57-4.12-1.39,3.81-1.9,7.66-3.72,11.44-5.7,11-5.77,22.24-10.89,34.46-13.53,2.34-.57,4.68-1.14,7.03-1.71Z"/><path class="cls-8" d="M273.73,114.56c-12.22,2.64-23.46,7.76-34.46,13.53-3.77,1.98-7.62,3.81-11.44,5.7-3.28.97-6.56,1.95-9.84,2.92-1.03-4.2-.54-6.17,2.98-8.42,3.32-2.12,6.83-4.08,10.5-5.51,7.5-2.93,15.06-5.77,23.29-6.18,2.65-.13,5.26-1.25,7.89-1.91,1.71-.28,3.43-.55,5.14-.83,1.97-.23,3.93-.47,5.9-.7.01.46.03.93.04,1.39Z"/><path class="cls-2" d="M160.52,32.2c-.49-.31-.97-.61-1.46-.92.76-.02,1.53-.04,2.29-.06-.28.33-.56.66-.83.99Z"/><path class="cls-2" d="M135.84,43.82c-.11.26-.22.52-.33.78-.2-.26-.51-.51-.55-.79-.03-.23.28-.5.44-.76.15.26.3.51.44.77Z"/><path class="cls-3" d="M273.73,114.56c-.01-.46-.03-.93-.04-1.39,2.36-.11,4.71-.21,7.07-.32-2.34.57-4.68,1.14-7.03,1.71Z"/><path class="cls-3" d="M267.79,113.86c-1.71.28-3.43.55-5.14.83,1.71-.28,3.43-.55,5.14-.83Z"/><path class="cls-4" d="M306.74,167.65c-.67-.02-1.35-.04-2.02-.06.27-.5.55-1,.82-1.5.4.52.8,1.04,1.2,1.56Z"/><path class="cls-2" d="M298.71,303.97c-23.99-.08-42.88-19.81-42.96-44.52-.08-22.04,16.76-44.15,43.28-44.35,23.74-.18,43.69,20.63,43.64,44.86-.04,24.83-19.29,44.09-43.96,44.01ZM295.41,254.8c6.38.01,11.25-.99,15.66-3.51,9.44-5.39,9.7-15.18.65-21.11-8.61-5.64-23.3-5.29-31.68.76-7.07,5.11-7.37,12.98-.56,18.44,5.01,4.01,10.95,5.34,15.94,5.43Z"/><path class="cls-9" d="M262,297.81c4.93,1.16,10,1.97,14.74,3.66,1.99.71,4.3,3.09,4.7,5.07.52,2.53-2.09,4.22-4.49,5.26-9.6,4.16-19.29,3.9-29,.47-1.21-.43-2.35-1.26-3.3-2.15-3.07-2.84-2.91-6.27.87-8.09,3.35-1.61,7.14-2.39,10.81-3.23,1.74-.4,3.64-.07,5.47-.07.07-.31.14-.62.21-.94Z"/><path class="cls-8" d="M295.41,254.8c-4.99-.09-10.93-1.41-15.94-5.43-6.81-5.45-6.51-13.33.56-18.44,8.38-6.05,23.07-6.4,31.68-.76,9.06,5.93,8.79,15.72-.65,21.11-4.42,2.52-9.28,3.52-15.66,3.51Z"/></g></svg>